<mxfile host="app.diagrams.net" modified="2023-05-25T08:34:43.760Z" agent="Mozilla/5.0 (Windows NT 10.0; Win64; x64) AppleWebKit/537.36 (KHTML, like Gecko) Chrome/113.0.0.0 Safari/537.36" version="21.3.3" etag="0uSsk2zam8koIStIUU-t" type="github">
  <diagram name="Trang-1" id="6JMFuLs0Y7-X_n5xktVG">
    <mxGraphModel>
      <root>
        <mxCell id="0" />
        <mxCell id="1" parent="0" />
      </root>
    </mxGraphModel>
  </diagram>
</mxfile>
